<svg xmlns="http://www.w3.org/2000/svg" id="Ebene_1" data-name="Ebene 1" viewBox="0 0 3820.1 1291.85"><defs><style>      .cls-1 {        fill: #933a35;      }    </style></defs><path class="cls-1" d="m1080.13,801.94l-114.38-31.13c-33.83-10.15-56.16-34.29-56.16-69.48,0-44.67,35.86-80.54,80.53-80.54h21.66c66.33,0,120.47,47.14,120.47,113.47,0,5.41,7.73,10.15,12.48,10.15,5.41,0,13.15-4.75,13.15-10.15v-125.89c0-5.41-7.75-9.47-13.15-9.47-4.75,0-12.48,4.06-12.48,9.47v11.51c0,8.12-6.78,15.57-15.57,15.57-3.39,0-7.45-2.03-10.15-4.06-.45-.45-.9-.91-1.36-1.36-25.04-22.33-57.52-35.87-93.39-35.87h-21.66c-77.82,0-140.09,62.95-140.09,140.1,0,62.26,41.28,117.75,100.84,134.67l114.38,31.14c33.83,10.15,56.16,41.28,56.16,76.48,0,44.67-35.86,73.54-80.53,73.54h-50.77c-67,0-117.14-47.14-117.14-113.47,0-5.42-8.06-10.15-13.47-10.15s-9.48,4.73-9.48,10.15v125.88c0,5.42,7.06,9.48,12.48,9.48s12.47-4.06,12.47-9.48v-11.5c0-8.12.78-15.57,9.57-15.57,4.06,0,7.45,2.03,10.84,4.06,0,.67.67.67.67,1.36,25.04,22.33,57.52,35.86,94.06,35.86h50.77c77.15,0,140.09-62.94,140.09-140.09,0-62.26-41.28-117.75-100.84-134.68h0Z"></path><path class="cls-1" d="m1463.11,624.86c54.82,0,94.48,44.67,94.48,99.48,0,5.42,6.06,9.48,11.48,9.48s12.48-4.06,12.48-9.48v-115.96c0-5.41-4.06-10.15-9.48-10.15h-347.86c-5.42,0-9.48,4.75-9.48,10.15s4.06,14.48,9.48,14.48c12.18,0,21.65,10.15,21.65,21.66v380.85c0,11.51-9.47,21.66-21.65,21.66-5.42,0-9.48,10.06-9.48,15.47s4.06,10.15,9.48,10.15h347.86c5.42,0,9.48-4.73,9.48-10.15v-108.96c0-5.41-7.06-9.47-12.48-9.47s-12.48,4.06-12.48,9.47c0,54.82-38.67,93.49-93.48,93.49h-119.11v-197.45h64.3c12.18,0,21.66,9.48,21.66,21.66,0,5.42,7.06,10.15,12.47,10.15s12.15-4.73,12.15-10.15v-67.94c0-5.42-6.73-9.48-12.15-9.48s-12.47,4.06-12.47,9.48c0,12.18-9.48,21.66-21.66,21.66h-64.3v-200.1h119.11Z"></path><path class="cls-1" d="m1919.85,1049.03c-5.42,0-9.48,4.06-9.48,9.47s4.06,14.15,9.48,14.15h148.89c4.73,0,9.47-8.73,9.47-14.15s-4.73-9.47-9.47-9.47c-13.54,0-30.45-7.51-35.87-21.72l-176.64-421.63-.67-1.36c-.67-.67-.67-1.35-1.36-2.03l-.67-.67c0-.67-.67-.67-1.36-1.36h-.67c0-.67-.67-.67-1.36-.67,0,0,0-.67-.67-.67h-.67c-.68,0-1.36-.68-2.03-.68-1.36.68-2.03.68-2.71.68h-.67c-.67.67-1.36.67-2.03,1.35s-1.36.68-2.03,1.36v.67c-.67.68-1.36,1.36-1.36,2.03l-14.21,33.84-29.1,68.36-134,317.79c-6.1,14.21-22.34,25.72-35.87,25.72-5.42,0-9.48,4.06-9.48,9.47s4.06,13.15,9.48,13.15h69.94c5.42,0,9.48-7.73,9.48-13.15s-4.06-9.47-9.48-9.47c-3.39,0-7.45-.68-10.15-4.06-2.03-3.39-2.03-2.12.67-8.21l8.81-20.99c33.83-71.73,102.87-116.11,180.69-122.2l54.59,140.19c2.7,6.09,2.7,6.82.67,10.21-2.7,3.38-6.76,4.06-10.15,4.06h0Zm-192.65-117.44l83.92-196.65,56.16,131.68c-53.46,5.41-102.19,29.1-140.09,64.97h0Z"></path><path class="cls-1" d="m2342.05,801.94l-114.38-31.13c-33.83-10.15-56.16-41.29-56.16-76.48,0-44.67,35.86-78.54,80.53-78.54h18.66c66.33,0,118.47,52.14,118.47,118.47,0,5.41,9.73,10.15,14.48,10.15,5.41,0,13.15-4.75,13.15-10.15v-125.89c0-5.41-7.75-9.47-13.15-9.47-4.75,0-9.48,4.06-9.48,9.47v11.51c0,8.12-6.78,15.57-15.57,15.57-3.39,0-7.45-2.03-10.15-4.06-.45-.45-.9-.91-1.36-1.36-25.04-22.33-57.52-35.87-93.39-35.87h-21.66c-77.82,0-140.09,62.95-140.09,140.1,0,62.26,41.28,117.75,100.84,134.67l114.38,31.14c33.83,10.15,56.16,41.28,56.16,76.48,0,44.67-35.86,77.54-80.53,77.54h-47.77c-67,0-121.14-51.14-121.14-117.47,0-5.42-7.06-10.15-12.47-10.15s-12.48,4.73-12.48,10.15v125.88c0,5.42,7.06,9.48,12.48,9.48s9.47-4.06,9.47-9.48v-11.5c0-8.12,6.78-15.57,15.57-15.57,4.06,0,7.45,2.03,10.84,4.06,0,.67.67.67.67,1.36,25.04,22.33,57.52,35.86,94.06,35.86h50.77c77.15,0,140.09-62.94,140.09-140.09,0-62.26-41.28-117.75-100.84-134.68h0Z"></path><path class="cls-1" d="m2717.58,594.17c-133.32,0-240.93,108.29-240.93,240.94s107.6,241.6,240.93,241.6,241.61-108.28,241.61-241.6-108.29-240.94-241.61-240.94Zm136.71,240.94c0,122.49-60.91,218.98-136.71,218.98s-136.7-96.49-136.7-218.98,61.58-218.31,136.7-218.31,136.71,96.48,136.71,218.31Z"></path><path class="cls-1" d="m3415.92,598.23h-62.95c-5.41,0-9.47,4.75-9.47,10.15s4.06,9.48,9.47,9.48c12.18,0,19.66,10.15,19.66,21.66l2,.67-2,341.09-237.58-378.31c-1.35-2.71-4.73-4.06-8.12-4.06h-124.52c-5.42,0-9.48,4.06-9.48,9.47s4.06,9.48,9.48,9.48c6.76,0,12.21,2.7,19.65,7.45v406.06c0,11.51-7.47,21.66-19.65,21.66-5.42,0-9.48,4.06-9.48,9.47s4.06,10.15,9.48,10.15h62.94c5.42,0,9.48-4.73,9.48-10.15s-4.06-9.47-9.48-9.47c-12.18,0-20.66-10.15-20.66-21.66v-389.15c.68.67,1.36,1.36,2.03,2.7l266.33,422.99c2.03,2.7,4.73,4.73,8.12,4.73h62.94c5.41,0,11.15-4.73,11.15-10.15v-422.98c0-12.18,8.48-21.66,20.66-21.66,5.41,0,9.47-4.06,9.47-9.48s-4.06-10.15-9.47-10.15h0Z"></path><path class="cls-1" d="m513.71,917.42c-19.89-113.53-35.44-227.83-54.35-341.57-4.44-12.25-.03-39.75-13.46-44.54-33.91-9.93-66.65-23.83-97.32-41.32-179.17-88.15-190.55-386.22,19.23-290.5,78.08,44.05,114.1,133.17,126.88,218.03,3.66,8.97.26,48.69,11.84,45.26,31.19,3.36,62.48,6.05,93.8,7.86,12.44-1.03,65.62,7.9,68.42-3.91,23.44-69.87,56.82-137.01,103.67-194.23,47.79-57.99,109.87-110.52,185.5-124.99,126.82-23.32,165.04,76.09,120.28,181.12-57.32,145.48-213.47,216.61-361.22,229.47-52.2,109.58-74.45,237.8-89.07,359.27-8.91,63.01-4.81,128.95-10.46,190.92-16.61-165.39-15.82-333.76,14.28-497.62,3.04-15.18,5.82-30.52,9.34-45.57,2.15-7.5-9.34-3.44-13.32-4.36-27.67-.08-55.25-2.99-82.63-6.87-6.84,1.23-42.4-12.13-39.37-2.18,1.62,121.87,10.67,244.09,7.96,365.73Zm514.04-659.24c-3.42-76.69-100.78-13.54-130.09,13.17-36.51,32.16-67.55,70.09-93.34,111.29-16.49,27.15-34.97,55.3-47.43,83.76,27.8-.2,57.53-8.81,84.96-16.01,72.34-18.09,181.03-115.11,185.91-192.21Zm-771.22,29.15c-.01,56.62,26.07,85.82,41.32,100.36,36.39,34.71,82.59,55.08,131.02,63.37,4.32.82,5.04-.16,3.9-4.27-16.96-63.57-53.22-174.71-122.39-199.3-33.84-12.03-53.84,16.71-53.84,39.84Z"></path></svg>